<?xml version="1.0" encoding="UTF-8" standalone="no"?>
<!-- Created with Inkscape (http://www.inkscape.org/) -->

<svg
   width="128mm"
   height="64mm"
   viewBox="0 0 128 64"
   version="1.1"
   id="svg5"
   sodipodi:docname="logo.svg"
   inkscape:version="1.2.1 (9c6d41e4, 2022-07-14)"
   xml:space="preserve"
   xmlns:inkscape="http://www.inkscape.org/namespaces/inkscape"
   xmlns:sodipodi="http://sodipodi.sourceforge.net/DTD/sodipodi-0.dtd"
   xmlns="http://www.w3.org/2000/svg"
   xmlns:svg="http://www.w3.org/2000/svg"><sodipodi:namedview
     id="namedview7"
     pagecolor="#ffffff"
     bordercolor="#000000"
     borderopacity="0.25"
     inkscape:showpageshadow="2"
     inkscape:pageopacity="0.0"
     inkscape:pagecheckerboard="0"
     inkscape:deskcolor="#d1d1d1"
     inkscape:document-units="mm"
     showgrid="false"
     inkscape:zoom="1.8101934"
     inkscape:cx="201.63592"
     inkscape:cy="122.91505"
     inkscape:window-width="1692"
     inkscape:window-height="1379"
     inkscape:window-x="2503"
     inkscape:window-y="25"
     inkscape:window-maximized="0"
     inkscape:current-layer="layer1" /><defs
     id="defs2"><linearGradient
       x1="24.714632"
       y1="22.897128"
       x2="151.13584"
       y2="148.33623"
       id="a"
       gradientTransform="scale(0.99888681,1.0011144)"
       gradientUnits="userSpaceOnUse"><stop
         stop-color="#387EB8"
         offset="0%"
         id="stop302" /><stop
         stop-color="#366994"
         offset="100%"
         id="stop304" /></linearGradient><linearGradient
       x1="102.48345"
       y1="103.26573"
       x2="238.2592"
       y2="231.90517"
       id="b"
       gradientTransform="scale(0.99888668,1.0011146)"
       gradientUnits="userSpaceOnUse"><stop
         stop-color="#FFE052"
         offset="0%"
         id="stop307" /><stop
         stop-color="#FFC331"
         offset="100%"
         id="stop309" /></linearGradient><linearGradient
       id="a-5"
       gradientUnits="userSpaceOnUse"
       x1="175.5"
       x2="175.5"
       y1="45"
       y2="148.5"
       gradientTransform="matrix(0.063183,0,0,0.063183,19.492759,18.96721)"><stop
         offset="0"
         stop-color="#f05a28"
         id="stop2140" /><stop
         offset="1"
         stop-color="#fbca0a"
         id="stop2142" /></linearGradient></defs><g
     inkscape:label="图层 1"
     inkscape:groupmode="layer"
     id="layer1"><g
       id="g330"
       transform="matrix(0.08467117,0,0,0.08467117,50.368847,20.005513)"><path
         d="m 126.916,0.072 c -64.832,0 -60.784,28.115 -60.784,28.115 l 0.072,29.128 h 61.868 V 66.06 H 41.631 c 0,0 -41.486,-4.705 -41.486,60.71 0,65.417 36.21,63.097 36.21,63.097 h 21.61 v -30.356 c 0,0 -1.165,-36.21 35.632,-36.21 h 61.362 c 0,0 34.475,0.557 34.475,-33.319 V 33.97 c 0,0 5.236,-33.898 -62.518,-33.898 z M 92.802,19.66 a 11.12,11.12 0 0 1 11.13,11.13 11.12,11.12 0 0 1 -11.13,11.13 11.12,11.12 0 0 1 -11.13,-11.13 11.12,11.12 0 0 1 11.13,-11.13 z"
         fill="url(#a)"
         id="path314"
         style="fill:url(#a)" /><path
         d="m 128.757,254.126 c 64.832,0 60.784,-28.115 60.784,-28.115 l -0.072,-29.127 H 127.6 v -8.745 h 86.441 c 0,0 41.486,4.705 41.486,-60.712 0,-65.416 -36.21,-63.096 -36.21,-63.096 h -21.61 v 30.355 c 0,0 1.165,36.21 -35.632,36.21 h -61.362 c 0,0 -34.475,-0.557 -34.475,33.32 v 56.013 c 0,0 -5.235,33.897 62.518,33.897 z m 34.114,-19.586 a 11.12,11.12 0 0 1 -11.13,-11.13 11.12,11.12 0 0 1 11.13,-11.131 11.12,11.12 0 0 1 11.13,11.13 11.12,11.12 0 0 1 -11.13,11.13 z"
         fill="url(#b)"
         id="path316"
         style="fill:url(#b)" /></g><path
       d="m 41.101343,29.152309 c -0.03791,-0.385415 -0.101093,-0.827696 -0.227458,-1.320523 -0.126368,-0.486509 -0.315915,-1.023564 -0.59392,-1.579575 -0.278006,-0.55601 -0.63815,-1.130977 -1.105703,-1.693304 -0.18323,-0.221141 -0.385416,-0.435962 -0.600238,-0.644466 0.322234,-1.282617 -0.391735,-2.394636 -0.391735,-2.394636 -1.232068,-0.07582 -2.015539,0.385415 -2.30618,0.59392 -0.05054,-0.01897 -0.09477,-0.04423 -0.145321,-0.06318 -0.208504,-0.08214 -0.423325,-0.164276 -0.650785,-0.233778 -0.221139,-0.0695 -0.448599,-0.132684 -0.682375,-0.189549 -0.233777,-0.05687 -0.467556,-0.101093 -0.70765,-0.139002 -0.04423,-0.0063 -0.08214,-0.01263 -0.126365,-0.01897 -0.537056,-1.718577 -2.078721,-2.438864 -2.078721,-2.438864 -1.724897,1.093065 -2.047129,2.622093 -2.047129,2.622093 0,0 -0.0063,0.03159 -0.01897,0.08846 -0.09477,0.02528 -0.189549,0.05687 -0.284323,0.08214 -0.132684,0.03791 -0.26537,0.08845 -0.391735,0.139002 -0.132686,0.05054 -0.259051,0.101092 -0.391734,0.157958 -0.259051,0.11373 -0.518102,0.240095 -0.770834,0.379097 -0.246413,0.139002 -0.486509,0.290641 -0.720285,0.448599 l -0.06318,-0.02528 c -2.388317,-0.909836 -4.504946,0.183229 -4.504946,0.183229 -0.19587,2.539957 0.954061,4.138488 1.181521,4.429129 -0.05687,0.157958 -0.107412,0.315915 -0.157959,0.473871 -0.17691,0.574967 -0.309596,1.162568 -0.391734,1.775444 -0.01263,0.08846 -0.02528,0.176911 -0.03159,0.265367 -2.211404,1.093066 -2.862189,3.323425 -2.862189,3.323425 1.838626,2.116632 3.986848,2.249316 3.986848,2.249316 l 0.0063,-0.0063 c 0.271686,0.486511 0.587602,0.947745 0.941427,1.383709 0.151639,0.183231 0.303278,0.353823 0.467552,0.524419 -0.669738,1.920762 0.09477,3.512973 0.09477,3.512973 2.04713,0.07582 3.392928,-0.897198 3.677251,-1.118338 0.202186,0.0695 0.41069,0.132684 0.619195,0.18323 0.631829,0.164277 1.276295,0.259051 1.920762,0.284323 0.157958,0.0063 0.322234,0.01263 0.480192,0.0063 h 0.227458 l 0.101092,-0.0063 v 0.0063 c 0.966701,1.377391 2.660005,1.573258 2.660005,1.573258 1.206794,-1.26998 1.276296,-2.533638 1.276296,-2.805326 V 39.14151 39.1036 39.04673 c 0.252732,-0.176911 0.492828,-0.366459 0.720285,-0.574964 0.480193,-0.435962 0.903517,-0.935107 1.257343,-1.472163 l 0.09477,-0.151639 c 1.364754,0.07582 2.331452,-0.846652 2.331452,-0.846652 -0.227458,-1.421619 -1.036201,-2.116632 -1.206793,-2.249315 -0.170596,-0.132684 -0.0063,-0.0063 -0.01897,-0.01263 -0.01263,-0.0063 -0.01263,-0.01263 -0.01263,-0.01263 -0.0063,-0.0063 -0.01897,-0.01263 -0.03159,-0.01894 0.0063,-0.08845 0.01263,-0.170595 0.01897,-0.25905 0.01263,-0.15164 0.01263,-0.309598 0.01263,-0.461237 v -0.202185 -0.03791 l -0.0063,-0.09477 -0.0063,-0.126367 c 0,-0.04423 -0.0063,-0.08214 -0.01263,-0.120046 -0.0063,-0.03791 -0.0063,-0.08214 -0.01263,-0.120049 l -0.01263,-0.120046 -0.01894,-0.120049 c -0.02528,-0.157958 -0.05054,-0.309597 -0.08845,-0.467553 -0.145323,-0.612876 -0.385418,-1.194159 -0.695016,-1.718579 -0.315913,-0.524417 -0.707647,-0.985654 -1.156247,-1.377388 -0.442281,-0.391734 -0.941426,-0.70765 -1.459528,-0.941427 -0.524418,-0.233779 -1.067791,-0.385416 -1.611167,-0.454918 -0.271685,-0.03791 -0.543373,-0.05054 -0.815059,-0.04423 h -0.202221 l -0.101093,0.0063 c -0.03791,0 -0.07582,0.0063 -0.107411,0.0063 -0.139002,0.01262 -0.278004,0.03159 -0.41069,0.05686 -0.543374,0.101093 -1.055154,0.296959 -1.503753,0.568647 -0.4486,0.271689 -0.840334,0.606558 -1.15625,0.985655 -0.315916,0.3791 -0.56233,0.802424 -0.732922,1.238387 -0.170596,0.435961 -0.26537,0.890879 -0.290644,1.326844 -0.0063,0.107409 -0.0063,0.221139 -0.0063,0.328551 v 0.08214 l 0.0063,0.08846 c 0.0063,0.05054 0.0063,0.107409 0.01263,0.157955 0.01897,0.221142 0.06318,0.435964 0.120048,0.638148 0.120046,0.41069 0.309598,0.783471 0.543374,1.099384 0.233776,0.315917 0.518099,0.574967 0.815059,0.783471 0.29696,0.202186 0.619195,0.347507 0.93511,0.442281 0.315913,0.09477 0.631829,0.132683 0.92879,0.132683 h 0.164276 c 0.01897,0 0.03791,0 0.05687,-0.0063 0.03159,0 0.06318,-0.0063 0.09477,-0.0063 0.0063,0 0.01897,0 0.02528,-0.0063 l 0.03159,-0.0063 c 0.01897,0 0.03791,-0.0063 0.05687,-0.0063 0.03791,-0.0063 0.0695,-0.01262 0.107411,-0.01897 0.03791,-0.0063 0.0695,-0.01263 0.101093,-0.02528 0.0695,-0.01263 0.132683,-0.03791 0.195868,-0.05687 0.126367,-0.04423 0.252732,-0.09477 0.360143,-0.151639 0.11373,-0.05687 0.214823,-0.126368 0.315916,-0.189549 0.02527,-0.01897 0.05686,-0.03791 0.08214,-0.06318 0.101093,-0.08214 0.120048,-0.233777 0.03791,-0.33487 -0.0695,-0.08846 -0.195867,-0.11373 -0.29696,-0.05687 l -0.07582,0.03791 c -0.08846,0.04423 -0.176914,0.08214 -0.271688,0.11373 -0.09477,0.03159 -0.195867,0.05687 -0.29696,0.07582 -0.05054,0.0063 -0.101092,0.01263 -0.157958,0.01897 -0.02527,0 -0.05054,0.0063 -0.08214,0.0063 h -0.15164 c -0.03159,0 -0.06318,0 -0.09477,-0.0063 h -0.03791 c -0.01263,0 -0.03159,0 -0.04423,-0.0063 -0.03159,-0.0063 -0.05687,-0.0063 -0.08846,-0.01263 -0.233777,-0.03159 -0.467553,-0.101093 -0.688695,-0.202186 -0.227458,-0.101148 -0.442281,-0.240151 -0.638149,-0.417062 -0.195866,-0.176913 -0.366462,-0.385418 -0.499145,-0.625513 -0.132683,-0.240094 -0.227458,-0.505464 -0.271686,-0.783468 -0.01897,-0.139002 -0.03159,-0.284323 -0.02528,-0.423328 0,-0.03791 0.0063,-0.07582 0.0063,-0.113728 v -0.05054 c 0,-0.01897 0.0063,-0.03791 0.0063,-0.05687 0.0063,-0.07582 0.01894,-0.151639 0.03159,-0.227461 0.107412,-0.606554 0.41069,-1.200474 0.878243,-1.649074 0.120049,-0.11373 0.246416,-0.214823 0.379099,-0.309597 0.132684,-0.09477 0.278005,-0.176914 0.429644,-0.246413 0.151639,-0.0695 0.303279,-0.126368 0.467555,-0.170596 0.157958,-0.04423 0.322233,-0.0695 0.492827,-0.08845 0.08214,-0.0063 0.164277,-0.01263 0.252733,-0.01263 h 0.195866 l 0.0695,0.0063 c 0.183233,0.01263 0.360144,0.03791 0.537058,0.08214 0.353825,0.07582 0.701331,0.208503 1.023563,0.385416 0.644466,0.360144 1.194158,0.916152 1.529028,1.585893 0.170595,0.33487 0.290644,0.695013 0.347506,1.067791 0.01262,0.09478 0.02528,0.189551 0.03159,0.284326 l 0.0063,0.0695 0.0063,0.0695 v 0.271686 c 0,0.04423 -0.0063,0.120048 -0.0063,0.164276 -0.0063,0.101093 -0.01897,0.208505 -0.03159,0.309598 -0.01263,0.101093 -0.03159,0.202185 -0.05054,0.303278 -0.01894,0.101093 -0.04423,0.202186 -0.0695,0.29696 -0.05054,0.195867 -0.113731,0.391735 -0.189552,0.587601 -0.151637,0.379098 -0.353822,0.74556 -0.59392,1.080429 -0.486508,0.669741 -1.149928,1.213115 -1.908124,1.560621 -0.3791,0.170593 -0.777153,0.29696 -1.187841,0.360144 -0.202185,0.03791 -0.41069,0.05687 -0.619194,0.06318 h -0.315904 c -0.113728,0 -0.22114,-0.0063 -0.33487,-0.01894 -0.442281,-0.03157 -0.878243,-0.113709 -1.307886,-0.233758 -0.423338,-0.120024 -0.834029,-0.290619 -1.225763,-0.492805 -0.777149,-0.417006 -1.478481,-0.985654 -2.021854,-1.674348 -0.271689,-0.341188 -0.511784,-0.713969 -0.70765,-1.099385 -0.195868,-0.385415 -0.353826,-0.796105 -0.467556,-1.206796 -0.113727,-0.417006 -0.18323,-0.840333 -0.21482,-1.269976 l -0.0063,-0.08214 v -0.360143 -0.04423 -0.157958 c 0.0063,-0.208504 0.02528,-0.429643 0.05054,-0.644466 0.02527,-0.214823 0.06318,-0.435963 0.107411,-0.650785 0.04423,-0.214824 0.09477,-0.429644 0.157958,-0.644467 0.120046,-0.423328 0.271686,-0.834015 0.4486,-1.219433 0.360141,-0.770831 0.827696,-1.459526 1.390026,-2.009218 0.139003,-0.139001 0.284323,-0.265369 0.435963,-0.391733 0.151639,-0.120049 0.309597,-0.233779 0.473871,-0.341189 0.157958,-0.107411 0.328553,-0.202185 0.499146,-0.290643 0.08214,-0.04423 0.170595,-0.08846 0.25905,-0.126365 l 0.132684,-0.05687 0.132686,-0.05687 c 0.176911,-0.07582 0.360142,-0.139002 0.549692,-0.195868 0.04423,-0.01262 0.09477,-0.02528 0.139002,-0.04423 0.04423,-0.01262 0.09477,-0.02528 0.139002,-0.03791 0.09477,-0.02528 0.189549,-0.05054 0.284323,-0.0695 0.04423,-0.01263 0.09477,-0.01894 0.145321,-0.03159 0.05054,-0.01263 0.09478,-0.01897 0.14532,-0.03159 0.05054,-0.0063 0.09478,-0.01897 0.145324,-0.02528 l 0.0695,-0.01263 0.07582,-0.01263 c 0.05054,-0.0063 0.09477,-0.01262 0.145321,-0.01897 0.05687,-0.0063 0.107412,-0.01263 0.164274,-0.01897 0.04423,-0.0063 0.120049,-0.01262 0.164277,-0.01894 0.03159,-0.0063 0.0695,-0.0063 0.101092,-0.01263 l 0.0695,-0.0063 0.03159,-0.0063 h 0.03791 c 0.05687,-0.0063 0.107412,-0.0063 0.164277,-0.01263 l 0.08214,-0.0063 h 0.06318 c 0.04423,0 0.09478,-0.0063 0.139002,-0.0063 0.183232,-0.0063 0.372781,-0.0063 0.556011,0 0.366463,0.01263 0.726603,0.05687 1.07411,0.120047 0.701332,0.132685 1.358435,0.353824 1.958674,0.650784 0.600239,0.290642 1.130975,0.650785 1.59853,1.04252 0.03159,0.02528 0.05687,0.05054 0.08846,0.07582 0.02528,0.02527 0.05687,0.05054 0.08214,0.07582 0.05687,0.05054 0.107411,0.101093 0.164277,0.151639 0.05687,0.05054 0.107411,0.101094 0.157958,0.151639 0.05054,0.05054 0.101092,0.101094 0.151639,0.157958 0.195867,0.208505 0.379097,0.417009 0.543373,0.63183 0.328551,0.423327 0.593921,0.852971 0.802425,1.257342 l 0.03791,0.07582 0.03791,0.07582 c 0.02528,0.05054 0.05054,0.101092 0.0695,0.151639 0.02528,0.05054 0.04423,0.09477 0.0695,0.14532 0.01897,0.05054 0.04423,0.09478 0.06318,0.145321 0.07582,0.189549 0.151639,0.372781 0.208505,0.543374 0.09477,0.278004 0.164276,0.52442 0.221141,0.73924 0.01894,0.08846 0.101093,0.145321 0.189549,0.132686 0.09477,-0.0063 0.164276,-0.08214 0.164276,-0.176913 0.0063,-0.227458 0,-0.499146 -0.03159,-0.808744 z"
       fill="url(#a)"
       id="path2145"
       style="fill:url(#a-5);stroke-width:0.0631832" /></g></svg>
